<svg width="176" height="176" viewBox="0 0 176 176" fill="none" xmlns="http://www.w3.org/2000/svg">
<path d="M92.9524 14.3876C92.2395 14.3379 91.6354 14.1835 91.1403 13.9244C90.6565 13.6555 90.2687 13.313 89.9769 12.897C89.6965 12.4711 89.4997 11.9976 89.3863 11.4765C89.273 10.9553 89.2356 10.4181 89.2742 9.86477C89.3172 9.2476 89.4371 8.67856 89.6338 8.15765C89.8306 7.63674 90.1026 7.18524 90.4501 6.80316C90.8081 6.42181 91.2397 6.13648 91.7447 5.94716C92.2506 5.7472 92.828 5.66986 93.4771 5.71513C94.1049 5.75891 94.6504 5.90923 95.1137 6.16609C95.5777 6.4123 95.9445 6.74797 96.2143 7.1731C96.4848 7.58759 96.6493 8.0642 96.708 8.60292L95.2915 8.9051C95.2918 8.59503 95.2217 8.2961 95.0814 8.00831C94.9411 7.72051 94.7279 7.4811 94.4419 7.29007C94.1672 7.08914 93.8064 6.97309 93.3594 6.94192C92.9551 6.91372 92.5984 6.96903 92.2893 7.10786C91.9802 7.2467 91.7146 7.45271 91.4924 7.72591C91.2815 7.98922 91.1096 8.30869 90.9764 8.68434C90.854 9.06073 90.7768 9.4777 90.7449 9.93526C90.7018 10.5524 90.7548 11.0961 90.9038 11.5663C91.0527 12.0364 91.3045 12.4122 91.6592 12.6936C92.0138 12.9749 92.4784 13.1356 93.053 13.1757C93.4999 13.2069 93.8828 13.1587 94.2018 13.0313C94.5215 12.8932 94.7815 12.6921 94.9817 12.4281C95.1826 12.1534 95.3234 11.821 95.4041 11.4311L96.7077 11.8267C96.6013 12.2791 96.4348 12.6738 96.2081 13.0108C95.9921 13.3486 95.7216 13.6238 95.3967 13.8364C95.0718 14.0489 94.7031 14.1997 94.2906 14.2885C93.8879 14.3887 93.4419 14.4218 92.9524 14.3876Z" fill="white"/>
<path d="M103.121 15.7889C102.349 15.6211 101.703 15.3057 101.182 14.8429C100.673 14.3719 100.321 13.7823 100.126 13.0739C99.9304 12.3655 99.9315 11.558 100.129 10.6512C100.333 9.71314 100.674 8.97408 101.152 8.43399C101.642 7.88576 102.213 7.51881 102.865 7.33316C103.527 7.14977 104.218 7.13634 104.937 7.29285C105.687 7.45618 106.318 7.76811 106.829 8.22867C107.353 8.68107 107.718 9.26259 107.923 9.97323C108.131 10.6734 108.134 11.4874 107.932 12.415C107.73 13.3426 107.389 14.0817 106.909 14.6322C106.429 15.1827 105.862 15.556 105.208 15.752C104.557 15.9377 103.861 15.95 103.121 15.7889ZM103.438 14.63C103.928 14.7366 104.376 14.7086 104.783 14.546C105.202 14.3753 105.554 14.0862 105.84 13.6789C106.135 13.2738 106.35 12.7638 106.484 12.1488C106.622 11.5131 106.642 10.9443 106.544 10.4426C106.448 9.93051 106.24 9.50855 105.919 9.17674C105.6 8.83451 105.175 8.60556 104.644 8.48987C104.154 8.38326 103.7 8.41012 103.283 8.57045C102.869 8.72035 102.515 8.99263 102.221 9.38729C101.928 9.78194 101.712 10.2972 101.574 10.9329C101.361 11.9127 101.422 12.7339 101.758 13.3965C102.097 14.0487 102.657 14.4599 103.438 14.63Z" fill="white"/>
<path d="M110.581 17.4357L112.409 12.67L113.543 9.712L114.768 10.1817L113.698 12.6158L113.937 12.7075C114.303 12.1396 114.68 11.7073 115.068 11.4105C115.456 11.1138 115.865 10.9395 116.297 10.8877C116.731 10.826 117.188 10.8868 117.666 11.0701C118.523 11.3985 119.052 11.9555 119.253 12.741C119.468 13.5204 119.343 14.5176 118.877 15.7327L117.245 19.9905L115.87 19.4635L117.457 15.3252C117.793 14.4488 117.902 13.7479 117.783 13.2227C117.675 12.7013 117.356 12.3394 116.829 12.137C116.35 11.9537 115.885 11.9465 115.432 12.1155C114.988 12.2883 114.577 12.5874 114.197 13.0128C113.83 13.4321 113.521 13.9248 113.27 14.491L111.941 17.957L110.581 17.4357Z" fill="white"/>
<path d="M122.947 23.0054C122.27 22.6431 121.865 22.1905 121.732 21.6475C121.609 21.1097 121.748 20.4645 122.151 19.7121L124.363 15.5786L123.262 14.9898L123.85 13.9252L124.527 14.2875C124.762 14.4133 124.954 14.4616 125.103 14.4323C125.261 14.408 125.407 14.3047 125.541 14.1223L126.263 13.1115L127.053 13.5342L126.178 15.1707L128.266 16.2878L127.684 17.3741L125.596 16.2569L123.407 20.3481C123.206 20.7243 123.145 21.0424 123.224 21.3022C123.317 21.5577 123.528 21.7736 123.857 21.9497C124.026 22.0403 124.218 22.1124 124.431 22.166C124.654 22.2246 124.894 22.2384 125.153 22.2074L124.473 23.4771C124.155 23.4397 123.868 23.3768 123.612 23.2887C123.357 23.2005 123.136 23.1061 122.947 23.0054Z" fill="white"/>
<path d="M128.688 26.4838C128.312 26.2206 128.025 25.915 127.826 25.5671C127.626 25.2192 127.541 24.8399 127.568 24.4292C127.604 24.0247 127.772 23.6084 128.072 23.1803C128.305 22.8484 128.563 22.5999 128.848 22.4349C129.133 22.2699 129.459 22.1858 129.826 22.1825C130.202 22.1853 130.626 22.2677 131.099 22.4296C131.58 22.5976 132.128 22.8382 132.742 23.1514C133.105 23.3404 133.402 23.4834 133.633 23.5805C133.865 23.6776 134.062 23.7118 134.226 23.6831C134.395 23.6456 134.55 23.5264 134.691 23.3255C134.924 22.9935 135.006 22.6344 134.938 22.2482C134.87 21.8619 134.592 21.4973 134.103 21.1545C133.849 20.977 133.561 20.8401 133.238 20.7438C132.914 20.6475 132.583 20.6368 132.244 20.7118C131.911 20.778 131.586 20.9732 131.267 21.2972L130.428 20.1813C130.724 19.907 131.04 19.6983 131.374 19.5552C131.718 19.4182 132.073 19.3481 132.44 19.3448C132.822 19.3389 133.213 19.4042 133.612 19.5407C134.02 19.6834 134.429 19.8985 134.84 20.1863C135.416 20.5903 135.825 21.02 136.066 21.4754C136.307 21.9308 136.383 22.4268 136.293 22.9633C136.21 23.491 135.951 24.065 135.516 24.6852L134.47 26.1789C134.274 26.4584 134.067 26.7629 133.849 27.0922C133.646 27.4189 133.44 27.75 133.231 28.0854C133.037 28.4182 132.855 28.7336 132.685 29.0315L131.585 28.2602C131.754 27.9623 131.928 27.6674 132.107 27.3757C132.291 27.0752 132.48 26.7777 132.674 26.4833L132.503 26.364C132.14 26.6041 131.748 26.7918 131.327 26.927C130.913 27.0535 130.479 27.0877 130.024 27.0298C129.579 26.978 129.133 26.796 128.688 26.4838ZM129.721 25.7621C129.904 25.8907 130.118 25.9948 130.362 26.0744C130.611 26.1454 130.886 26.1813 131.185 26.1824C131.484 26.1834 131.797 26.136 132.125 26.04C132.452 25.9441 132.796 25.7878 133.156 25.5713L134.043 24.2781L134.351 24.5915C134.113 24.6333 133.852 24.6065 133.567 24.5111C133.291 24.4218 132.998 24.3011 132.688 24.1489C132.378 23.9967 132.065 23.8488 131.748 23.7053C131.438 23.5531 131.132 23.4424 130.828 23.3732C130.54 23.3014 130.263 23.2964 129.999 23.3583C129.743 23.4264 129.514 23.6045 129.312 23.8928C129.067 24.2422 128.985 24.582 129.066 24.9124C129.162 25.2401 129.38 25.5234 129.721 25.7621Z" fill="white"/>
<path d="M138.125 33.9554C137.602 33.4677 137.23 32.9674 137.009 32.4542C136.802 31.9406 136.717 31.4304 136.752 30.9235C136.803 30.4161 136.948 29.9243 137.188 29.4482C137.428 28.972 137.738 28.5311 138.116 28.1257C138.538 27.6734 138.99 27.3069 139.471 27.0262C139.952 26.7455 140.447 26.5661 140.958 26.4882C141.476 26.4175 141.991 26.4677 142.503 26.6387C143.021 26.802 143.519 27.1056 143.994 27.5496C144.454 27.979 144.783 28.4394 144.981 28.9306C145.187 29.4141 145.26 29.9059 145.202 30.406C145.151 30.8983 144.979 31.3722 144.685 31.8275L143.394 31.1701C143.59 30.9294 143.724 30.6531 143.796 30.3412C143.868 30.0293 143.854 29.7091 143.752 29.3805C143.665 29.0515 143.458 28.7341 143.13 28.4284C142.834 28.1518 142.522 27.9701 142.194 27.8833C141.867 27.7964 141.531 27.7892 141.186 27.8614C140.857 27.9331 140.522 28.073 140.182 28.2809C139.85 28.4961 139.527 28.7714 139.214 29.1067C138.792 29.5589 138.491 30.0146 138.31 30.4736C138.13 30.9326 138.089 31.3831 138.187 31.825C138.285 32.2669 138.545 32.6843 138.966 33.0774C139.293 33.3831 139.621 33.5869 139.949 33.6888C140.285 33.7829 140.613 33.7904 140.935 33.7114C141.264 33.6246 141.583 33.4551 141.891 33.203L142.654 34.3314C142.287 34.6157 141.909 34.8174 141.52 34.9365C141.14 35.0628 140.757 35.1062 140.37 35.0667C139.984 35.0271 139.603 34.912 139.226 34.7212C138.85 34.5455 138.483 34.2902 138.125 33.9554Z" fill="white"/>
<path d="M144.525 40.6264C144.03 40.0397 143.821 39.4695 143.897 38.9158C143.981 38.3704 144.349 37.8223 145.001 37.2717L148.583 34.247L147.778 33.2935L148.717 32.5211L149.212 33.1079C149.384 33.3116 149.545 33.4273 149.694 33.4551C149.85 33.4909 150.024 33.4488 150.216 33.3287L151.26 32.656L151.838 33.3406L150.42 34.5381L151.948 36.3473L151.007 37.1422L149.479 35.333L145.934 38.3268C145.608 38.6021 145.434 38.875 145.411 39.1456C145.403 39.4174 145.52 39.696 145.761 39.9812C145.884 40.1279 146.036 40.2655 146.214 40.3941C146.399 40.5308 146.618 40.6325 146.869 40.6991L145.769 41.6282C145.487 41.4758 145.243 41.3114 145.039 41.1352C144.834 40.959 144.663 40.7894 144.525 40.6264Z" fill="white"/>
<path d="M150.949 48.7302L155.484 46.4226L158.321 44.9785L158.909 46.1336L156.484 47.2241L156.6 47.4522C157.233 47.2855 157.789 47.2124 158.266 47.2329C158.753 47.2485 159.168 47.3601 159.513 47.5675C159.863 47.7845 160.142 48.0974 160.35 48.5062C160.587 48.972 160.664 49.4175 160.581 49.8426C160.508 50.2629 160.317 50.6411 160.01 50.9773C159.716 51.318 159.342 51.6045 158.885 51.8367L159.001 52.0649C159.596 51.8937 160.133 51.8184 160.61 51.8388C161.101 51.864 161.524 51.9898 161.879 52.2162C162.238 52.4522 162.525 52.7794 162.737 53.1976C162.931 53.5779 163.024 53.9493 163.017 54.3119C163.01 54.6745 162.908 55.0259 162.71 55.366C162.517 55.7156 162.221 56.0516 161.823 56.374C161.438 56.7012 160.961 57.0098 160.391 57.3001L156.355 59.3537L155.695 58.0561L159.559 56.0895C160.12 55.8041 160.559 55.5148 160.877 55.2215C161.204 54.9235 161.405 54.6239 161.479 54.3228C161.567 54.0264 161.532 53.7214 161.372 53.4077C161.188 53.0464 160.903 52.7908 160.515 52.6409C160.128 52.491 159.669 52.437 159.14 52.4789C158.625 52.5255 158.073 52.663 157.483 52.8914L153.975 54.6765L153.329 53.4074L157.065 51.5061C157.664 51.2014 158.127 50.8999 158.454 50.6019C158.791 50.2989 159.006 49.9921 159.099 49.6814C159.197 49.3802 159.164 49.0679 158.999 48.7447C158.806 48.3644 158.506 48.1042 158.099 47.964C157.702 47.8189 157.237 47.7745 156.703 47.8307C156.174 47.8965 155.626 48.0435 155.06 48.2717L151.61 50.0278L150.949 48.7302Z" fill="white"/>
<path d="M158.547 66.6639C158.361 66.0403 158.289 65.4609 158.33 64.9256C158.381 64.3873 158.536 63.9012 158.797 63.4675C159.06 63.044 159.411 62.6722 159.85 62.3522C160.292 62.0424 160.82 61.7961 161.433 61.6133C162.057 61.4275 162.653 61.3386 163.223 61.3468C163.797 61.3652 164.325 61.475 164.807 61.6761C165.29 61.8772 165.703 62.1773 166.044 62.5764C166.396 62.9725 166.66 63.4669 166.837 64.0598C166.992 64.5812 167.045 65.0773 166.997 65.5482C166.951 66.0293 166.79 66.4781 166.513 66.8944C166.247 67.3077 165.859 67.6682 165.349 67.9758C164.853 68.2906 164.233 68.5423 163.487 68.731L161.591 62.5346L162.541 62.2513L164.187 67.6043L163.401 67.3209C164.06 67.1801 164.574 66.9604 164.941 66.6617C165.311 66.3732 165.555 66.0334 165.672 65.6423C165.789 65.2512 165.784 64.841 165.656 64.4117C165.513 63.9312 165.265 63.5487 164.913 63.264C164.564 62.9896 164.131 62.8238 163.613 62.7667C163.095 62.7095 162.509 62.7784 161.855 62.9734C160.915 63.2537 160.256 63.678 159.88 64.2464C159.518 64.822 159.458 65.5187 159.702 66.3365C159.799 66.6636 159.919 66.934 160.061 67.1478C160.215 67.3688 160.384 67.5413 160.565 67.6652C160.76 67.7963 160.965 67.8856 161.179 67.933C161.407 67.9875 161.632 68.015 161.855 68.0154L161.945 69.3244C161.536 69.3349 161.156 69.2923 160.805 69.1966C160.464 69.0979 160.148 68.9359 159.858 68.7106C159.572 68.4956 159.316 68.2157 159.091 67.871C158.869 67.5365 158.687 67.1341 158.547 66.6639Z" fill="white"/>
<path d="M164.08 78.9317C164.023 78.4122 164.091 78.0129 164.286 77.7339C164.481 77.4654 164.818 77.3049 165.295 77.2521C165.783 77.1982 166.151 77.2809 166.401 77.5002C166.652 77.73 166.806 78.1047 166.863 78.6242C166.92 79.1437 166.852 79.543 166.657 79.822C166.464 80.1117 166.123 80.2835 165.636 80.3374C165.159 80.3901 164.794 80.2962 164.542 80.0558C164.291 79.8259 164.137 79.4512 164.08 78.9317Z" fill="white"/>
<path d="M161.523 92.8813C161.571 92.1682 161.724 91.5638 161.982 91.0679C162.25 90.5835 162.591 90.1948 163.006 89.902C163.432 89.6205 163.905 89.4224 164.425 89.3078C164.946 89.1931 165.483 89.1543 166.037 89.1915C166.654 89.233 167.223 89.3514 167.745 89.5468C168.266 89.7421 168.719 90.0131 169.101 90.3595C169.484 90.7166 169.77 91.1474 169.961 91.652C170.162 92.1573 170.241 92.7345 170.197 93.3837C170.155 94.0117 170.006 94.5576 169.75 95.0215C169.505 95.4861 169.171 95.8538 168.746 96.1247C168.333 96.3962 167.856 96.562 167.318 96.622L167.012 95.2064C167.322 95.2058 167.621 95.135 167.908 94.994C168.196 94.8529 168.434 94.6391 168.625 94.3525C168.825 94.0773 168.94 93.7162 168.97 93.2693C168.997 92.8648 168.941 92.5083 168.801 92.1995C168.662 91.8908 168.455 91.6257 168.181 91.4042C167.918 91.194 167.598 91.0229 167.222 90.8907C166.845 90.7692 166.428 90.6931 165.97 90.6623C165.353 90.6209 164.809 90.6752 164.34 90.8254C163.87 90.9756 163.495 91.2284 163.214 91.5837C162.934 91.939 162.774 92.404 162.736 92.9788C162.706 93.4257 162.755 93.8086 162.883 94.1272C163.022 94.4466 163.224 94.706 163.488 94.9055C163.763 95.1058 164.096 95.2457 164.486 95.3254L164.094 96.63C163.641 96.5248 163.246 96.3592 162.909 96.1334C162.57 95.9183 162.294 95.6485 162.081 95.3242C161.868 94.9998 161.716 94.6315 161.626 94.2192C161.525 93.8168 161.491 93.3709 161.523 92.8813Z" fill="white"/>
<path d="M160.149 103.052C160.315 102.281 160.628 101.633 161.09 101.111C161.559 100.601 162.148 100.247 162.856 100.05C163.564 99.8531 164.371 99.8521 165.279 100.047C166.217 100.249 166.957 100.588 167.498 101.064C168.048 101.553 168.416 102.123 168.604 102.775C168.789 103.436 168.804 104.127 168.649 104.846C168.488 105.597 168.178 106.229 167.719 106.741C167.268 107.266 166.687 107.632 165.977 107.84C165.277 108.049 164.463 108.054 163.535 107.855C162.607 107.656 161.867 107.317 161.315 106.838C160.764 106.359 160.389 105.793 160.191 105.14C160.004 104.489 159.99 103.793 160.149 103.052ZM161.308 103.367C161.203 103.857 161.232 104.305 161.396 104.711C161.568 105.13 161.858 105.482 162.266 105.766C162.672 106.06 163.182 106.274 163.798 106.406C164.434 106.542 165.002 106.561 165.504 106.462C166.016 106.364 166.437 106.155 166.768 105.833C167.11 105.514 167.337 105.088 167.452 104.556C167.557 104.066 167.529 103.613 167.368 103.196C167.217 102.782 166.943 102.429 166.548 102.136C166.153 101.844 165.637 101.63 165.001 101.493C164.02 101.282 163.199 101.346 162.538 101.684C161.886 102.024 161.477 102.585 161.308 103.367Z" fill="white"/>
<path d="M158.52 110.521L163.291 112.336L166.252 113.462L165.785 114.688L163.348 113.624L163.257 113.864C163.826 114.228 164.259 114.604 164.557 114.991C164.855 115.379 165.03 115.788 165.083 116.219C165.146 116.653 165.086 117.11 164.904 117.589C164.578 118.446 164.022 118.976 163.237 119.18C162.458 119.397 161.461 119.274 160.244 118.812L155.983 117.19L156.506 115.814L160.648 117.39C161.526 117.724 162.227 117.831 162.752 117.711C163.273 117.601 163.634 117.282 163.835 116.754C164.017 116.275 164.023 115.81 163.853 115.357C163.679 114.914 163.379 114.503 162.952 114.124C162.532 113.759 162.039 113.451 161.472 113.201L158.002 111.881L158.52 110.521Z" fill="white"/>
<path d="M152.983 122.899C153.344 122.221 153.795 121.815 154.338 121.681C154.875 121.556 155.521 121.694 156.274 122.094L160.414 124.295L161 123.193L162.066 123.779L161.705 124.457C161.58 124.692 161.532 124.884 161.562 125.033C161.586 125.191 161.69 125.337 161.873 125.47L162.886 126.19L162.465 126.981L160.826 126.109L159.714 128.2L158.627 127.622L159.738 125.531L155.642 123.353C155.265 123.152 154.947 123.092 154.687 123.171C154.432 123.265 154.217 123.477 154.041 123.806C153.951 123.976 153.879 124.167 153.826 124.381C153.768 124.604 153.755 124.844 153.787 125.103L152.515 124.427C152.552 124.108 152.614 123.821 152.702 123.565C152.789 123.31 152.883 123.088 152.983 122.899Z" fill="white"/>
<path d="M149.519 128.648C149.782 128.272 150.086 127.984 150.434 127.784C150.781 127.584 151.16 127.497 151.571 127.524C151.976 127.559 152.392 127.725 152.821 128.024C153.154 128.256 153.403 128.514 153.569 128.799C153.734 129.083 153.819 129.409 153.824 129.776C153.822 130.152 153.74 130.576 153.58 131.049C153.413 131.531 153.174 132.08 152.862 132.695C152.674 133.058 152.532 133.355 152.435 133.587C152.339 133.818 152.305 134.016 152.334 134.179C152.372 134.349 152.492 134.504 152.693 134.644C153.026 134.876 153.385 134.957 153.771 134.888C154.157 134.819 154.521 134.54 154.862 134.05C155.039 133.796 155.176 133.507 155.271 133.184C155.366 132.86 155.376 132.529 155.3 132.19C155.233 131.857 155.037 131.532 154.713 131.215L155.826 130.372C156.101 130.668 156.311 130.983 156.455 131.318C156.593 131.661 156.664 132.016 156.668 132.383C156.675 132.765 156.611 133.155 156.475 133.555C156.333 133.963 156.119 134.373 155.833 134.784C155.43 135.362 155.001 135.772 154.547 136.014C154.092 136.256 153.596 136.333 153.059 136.245C152.531 136.163 151.957 135.906 151.335 135.473L149.839 134.43C149.559 134.234 149.254 134.028 148.924 133.811C148.597 133.609 148.265 133.404 147.929 133.196C147.596 133.003 147.28 132.822 146.982 132.653L147.75 131.55C148.049 131.719 148.344 131.892 148.636 132.07C148.937 132.254 149.235 132.442 149.53 132.634L149.649 132.464C149.408 132.101 149.219 131.709 149.083 131.289C148.955 130.875 148.92 130.441 148.977 129.986C149.027 129.541 149.208 129.095 149.519 128.648ZM150.244 129.68C150.116 129.864 150.012 130.077 149.933 130.321C149.863 130.571 149.827 130.846 149.827 131.145C149.827 131.444 149.875 131.757 149.972 132.084C150.069 132.412 150.226 132.755 150.443 133.115L151.739 133.998L151.426 134.307C151.384 134.069 151.41 133.808 151.505 133.523C151.593 133.247 151.713 132.953 151.865 132.643C152.016 132.332 152.163 132.019 152.306 131.702C152.457 131.392 152.567 131.085 152.635 130.781C152.706 130.493 152.711 130.216 152.648 129.952C152.579 129.696 152.401 129.467 152.112 129.266C151.762 129.022 151.422 128.941 151.092 129.023C150.764 129.119 150.482 129.339 150.244 129.68Z" fill="white"/>
<path d="M142.072 138.105C142.558 137.581 143.058 137.208 143.57 136.985C144.083 136.778 144.593 136.691 145.1 136.725C145.608 136.774 146.1 136.918 146.577 137.157C147.054 137.396 147.495 137.704 147.902 138.082C148.355 138.503 148.723 138.953 149.005 139.433C149.286 139.914 149.467 140.409 149.546 140.919C149.618 141.437 149.569 141.952 149.4 142.464C149.238 142.984 148.935 143.482 148.493 143.958C148.064 144.419 147.605 144.75 147.114 144.949C146.631 145.156 146.14 145.23 145.639 145.173C145.147 145.124 144.673 144.953 144.216 144.66L144.871 143.368C145.112 143.563 145.388 143.696 145.7 143.767C146.013 143.839 146.333 143.823 146.661 143.72C146.99 143.633 147.307 143.425 147.612 143.097C147.887 142.8 148.068 142.487 148.154 142.159C148.24 141.832 148.247 141.496 148.174 141.151C148.101 140.822 147.96 140.487 147.752 140.148C147.536 139.816 147.259 139.494 146.923 139.182C146.47 138.761 146.014 138.461 145.554 138.282C145.095 138.103 144.644 138.063 144.202 138.162C143.761 138.261 143.344 138.522 142.952 138.944C142.647 139.272 142.444 139.601 142.343 139.929C142.25 140.265 142.243 140.593 142.323 140.915C142.411 141.244 142.581 141.562 142.834 141.869L141.707 142.636C141.422 142.269 141.219 141.891 141.099 141.503C140.972 141.123 140.928 140.74 140.966 140.354C141.005 139.967 141.119 139.586 141.309 139.209C141.484 138.832 141.738 138.465 142.072 138.105Z" fill="white"/>
<path d="M135.417 144.523C136.003 144.026 136.572 143.815 137.126 143.89C137.672 143.973 138.221 144.339 138.773 144.99L141.807 148.564L142.758 147.756L143.533 148.694L142.948 149.191C142.744 149.363 142.629 149.524 142.602 149.673C142.566 149.829 142.609 150.003 142.729 150.194L143.405 151.237L142.722 151.817L141.521 150.402L139.715 151.935L138.918 150.995L140.723 149.463L137.72 145.926C137.444 145.6 137.171 145.427 136.9 145.404C136.628 145.397 136.35 145.515 136.066 145.756C135.919 145.881 135.782 146.032 135.654 146.211C135.518 146.396 135.417 146.615 135.351 146.867L134.419 145.769C134.57 145.486 134.734 145.243 134.91 145.037C135.085 144.832 135.255 144.661 135.417 144.523Z" fill="white"/>
<path d="M127.33 150.967L129.649 155.495L131.101 158.329L129.947 158.92L128.85 156.498L128.623 156.614C128.791 157.247 128.865 157.802 128.846 158.28C128.832 158.766 128.721 159.182 128.515 159.528C128.299 159.878 127.987 160.158 127.578 160.367C127.113 160.605 126.668 160.684 126.242 160.602C125.822 160.53 125.443 160.34 125.106 160.033C124.765 159.741 124.477 159.367 124.244 158.911L124.016 159.028C124.189 159.622 124.266 160.158 124.246 160.635C124.222 161.127 124.098 161.55 123.872 161.906C123.637 162.266 123.311 162.553 122.893 162.767C122.513 162.961 122.142 163.055 121.779 163.049C121.417 163.043 121.065 162.942 120.725 162.745C120.374 162.552 120.038 162.257 119.714 161.86C119.386 161.477 119.076 161 118.784 160.431L116.72 156.4L118.016 155.737L119.993 159.596C120.28 160.156 120.57 160.595 120.864 160.911C121.163 161.238 121.463 161.437 121.765 161.511C122.061 161.599 122.366 161.562 122.679 161.402C123.04 161.217 123.295 160.931 123.444 160.543C123.593 160.155 123.646 159.697 123.602 159.168C123.555 158.653 123.416 158.101 123.186 157.511L121.392 154.008L122.659 153.359L124.57 157.09C124.876 157.688 125.179 158.15 125.478 158.477C125.782 158.813 126.089 159.027 126.4 159.119C126.701 159.216 127.013 159.182 127.336 159.017C127.716 158.822 127.976 158.522 128.115 158.115C128.259 157.718 128.302 157.252 128.244 156.718C128.177 156.189 128.029 155.642 127.799 155.077L126.034 151.63L127.33 150.967Z" fill="white"/>
<path d="M109.416 158.611C110.039 158.424 110.618 158.35 111.154 158.389C111.692 158.439 112.179 158.593 112.613 158.852C113.037 159.115 113.41 159.465 113.731 159.903C114.042 160.344 114.29 160.871 114.474 161.484C114.662 162.107 114.752 162.704 114.745 163.274C114.728 163.847 114.62 164.375 114.42 164.859C114.22 165.342 113.921 165.755 113.523 166.097C113.128 166.45 112.634 166.716 112.042 166.894C111.521 167.051 111.025 167.105 110.554 167.058C110.072 167.013 109.623 166.853 109.206 166.577C108.792 166.312 108.431 165.925 108.122 165.417C107.806 164.921 107.552 164.301 107.362 163.557L113.553 161.644L113.839 162.594L108.49 164.253L108.772 163.467C108.914 164.126 109.135 164.638 109.435 165.005C109.724 165.375 110.065 165.617 110.456 165.734C110.847 165.85 111.258 165.843 111.687 165.714C112.167 165.57 112.549 165.321 112.832 164.969C113.106 164.619 113.271 164.185 113.326 163.667C113.382 163.149 113.312 162.563 113.115 161.909C112.832 160.97 112.406 160.313 111.837 159.938C111.26 159.577 110.564 159.519 109.746 159.765C109.42 159.863 109.149 159.984 108.936 160.126C108.716 160.281 108.543 160.45 108.42 160.632C108.289 160.827 108.201 161.032 108.154 161.247C108.1 161.474 108.073 161.7 108.073 161.923L106.764 162.015C106.753 161.607 106.794 161.227 106.889 160.875C106.987 160.534 107.148 160.218 107.373 159.928C107.587 159.64 107.866 159.384 108.21 159.158C108.544 158.935 108.946 158.753 109.416 158.611Z" fill="white"/>
<path d="M97.1616 164.176C97.6809 164.117 98.0804 164.184 98.3599 164.378C98.6289 164.573 98.7903 164.909 98.8443 165.386C98.8994 165.874 98.8177 166.243 98.5991 166.493C98.3699 166.744 97.9956 166.899 97.4762 166.958C96.9569 167.017 96.5574 166.949 96.2779 166.755C95.9877 166.563 95.8151 166.223 95.7599 165.735C95.706 165.258 95.7989 164.893 96.0387 164.641C96.2679 164.389 96.6422 164.234 97.1616 164.176Z" fill="white"/>
<path d="M83.207 161.655C83.9202 161.701 84.525 161.852 85.0215 162.108C85.5067 162.375 85.8962 162.715 86.1901 163.13C86.4727 163.554 86.6719 164.027 86.788 164.547C86.904 165.068 86.9441 165.605 86.9083 166.159C86.8685 166.776 86.7515 167.346 86.5574 167.867C86.3634 168.389 86.0936 168.842 85.7482 169.226C85.3921 169.609 84.962 169.897 84.4579 170.089C83.9531 170.291 83.376 170.372 82.7267 170.33C82.0987 170.289 81.5524 170.142 81.0879 169.887C80.6226 169.643 80.254 169.309 79.9821 168.886C79.7095 168.473 79.5425 167.997 79.4811 167.458L80.896 167.149C80.8973 167.459 80.9689 167.758 81.1107 168.045C81.2525 168.332 81.4669 168.57 81.7539 168.76C82.0296 168.959 82.391 169.073 82.8381 169.102C83.2426 169.128 83.599 169.071 83.9074 168.931C84.2157 168.79 84.4803 168.583 84.7011 168.309C84.9106 168.044 85.0809 167.724 85.2122 167.348C85.3327 166.971 85.4078 166.553 85.4373 166.096C85.4772 165.478 85.4215 164.935 85.2701 164.465C85.1187 163.996 84.865 163.622 84.5089 163.342C84.1529 163.062 83.6875 162.904 83.1127 162.867C82.6656 162.838 82.2829 162.888 81.9646 163.017C81.6456 163.157 81.3866 163.359 81.1878 163.624C80.9883 163.9 80.8492 164.233 80.7705 164.624L79.4649 164.235C79.569 163.782 79.7335 163.386 79.9584 163.048C80.1727 162.709 80.4418 162.433 80.7656 162.218C81.0894 162.004 81.4573 161.851 81.8694 161.761C82.2715 161.658 82.7174 161.623 83.207 161.655Z" fill="white"/>
<path d="M73.0337 160.306C73.8059 160.47 74.4539 160.782 74.9778 161.242C75.4891 161.71 75.8441 162.298 76.043 163.005C76.2418 163.713 76.2449 164.52 76.0523 165.428C75.8531 166.367 75.516 167.108 75.041 167.651C74.5534 168.201 73.9842 168.571 73.3335 168.76C72.6723 168.947 71.9817 168.964 71.2618 168.812C70.5105 168.652 69.8781 168.344 69.3646 167.886C68.8385 167.436 68.4708 166.856 68.2615 166.147C68.05 165.448 68.0428 164.634 68.2398 163.705C68.4369 162.776 68.774 162.036 69.2511 161.483C69.7283 160.93 70.2934 160.553 70.9463 160.354C71.5971 160.165 72.2929 160.149 73.0337 160.306ZM72.722 161.467C72.2316 161.363 71.7836 161.393 71.3779 161.558C70.9595 161.731 70.6089 162.022 70.3258 162.43C70.0324 162.837 69.8204 163.348 69.6897 163.964C69.5547 164.6 69.5376 165.169 69.6384 165.67C69.737 166.182 69.9476 166.603 70.2701 166.933C70.5904 167.273 71.0166 167.5 71.5488 167.613C72.0392 167.717 72.4925 167.688 72.9086 167.525C73.3225 167.373 73.6751 167.099 73.9663 166.703C74.2575 166.307 74.4707 165.79 74.6057 165.154C74.8138 164.173 74.7481 163.352 74.4086 162.691C74.0668 162.041 73.5046 161.633 72.722 161.467Z" fill="white"/>
<path d="M65.558 158.696L63.7552 163.471L62.6362 166.435L61.4088 165.972L62.4667 163.532L62.2272 163.442C61.8638 164.012 61.489 164.446 61.1025 164.745C60.7161 165.043 60.3075 165.22 59.8766 165.274C59.442 165.338 58.9852 165.279 58.5062 165.098C57.648 164.774 57.1162 164.22 56.9107 163.436C56.6915 162.657 56.8117 161.659 57.2713 160.442L58.882 156.176L60.2591 156.696L58.6936 160.842C58.3621 161.72 58.2569 162.422 58.3781 162.946C58.4893 163.467 58.8093 163.827 59.3382 164.027C59.8172 164.208 60.2829 164.213 60.7352 164.041C61.1775 163.866 61.5877 163.565 61.9657 163.138C62.3299 162.717 62.6363 162.222 62.8847 161.655L64.1958 158.182L65.558 158.696Z" fill="white"/>
<path d="M53.1662 153.191C53.8453 153.55 54.2526 154.001 54.3883 154.543C54.5146 155.08 54.3784 155.726 53.9797 156.481L51.7893 160.625L52.8927 161.208L52.3104 162.276L51.6314 161.917C51.3956 161.793 51.2035 161.745 51.0549 161.775C50.8968 161.801 50.7514 161.905 50.6184 162.088L49.9013 163.102L49.1091 162.684L49.9763 161.043L47.8827 159.936L48.4583 158.847L50.5519 159.953L52.7199 155.851C52.9192 155.474 52.9789 155.155 52.8988 154.896C52.8044 154.641 52.5921 154.426 52.262 154.252C52.0923 154.162 51.9006 154.091 51.6871 154.038C51.4641 153.981 51.2234 153.968 50.9651 154.001L51.6379 152.728C51.9568 152.763 52.244 152.825 52.4998 152.912C52.7555 152.998 52.9776 153.092 53.1662 153.191Z" fill="white"/>
<path d="M47.4088 149.743C47.7857 150.004 48.0746 150.308 48.2755 150.655C48.4763 151.002 48.5641 151.381 48.5389 151.791C48.5049 152.196 48.3391 152.613 48.0413 153.043C47.8104 153.376 47.5529 153.626 47.2687 153.792C46.9846 153.959 46.6591 154.044 46.2921 154.05C45.9163 154.049 45.4917 153.969 45.0182 153.809C44.536 153.643 43.987 153.406 43.3712 153.096C43.0077 152.909 42.7099 152.767 42.4779 152.671C42.2459 152.575 42.0483 152.542 41.885 152.572C41.7156 152.61 41.5611 152.73 41.4213 152.932C41.1904 153.265 41.1099 153.624 41.1798 154.01C41.2498 154.396 41.5302 154.759 42.0211 155.099C42.2753 155.276 42.5643 155.411 42.8881 155.506C43.2119 155.6 43.5431 155.609 43.8818 155.533C44.2144 155.465 44.539 155.268 44.8556 154.942L45.7009 156.054C45.406 156.33 45.0915 156.54 44.7574 156.685C44.4146 156.824 44.0597 156.896 43.6928 156.901C43.3109 156.909 42.92 156.845 42.52 156.711C42.1113 156.57 41.7009 156.357 41.2889 156.072C40.7103 155.67 40.2994 155.243 40.0561 154.789C39.8129 154.334 39.7346 153.839 39.8212 153.302C39.9018 152.774 40.1579 152.199 40.5893 151.576L41.6285 150.077C41.8229 149.797 42.0282 149.491 42.2443 149.161C42.4455 148.833 42.6498 148.501 42.8571 148.164C43.0495 147.83 43.2298 147.514 43.398 147.215L44.5026 147.981C44.3344 148.28 44.1619 148.576 43.9849 148.868C43.8019 149.17 43.6146 149.468 43.4228 149.763L43.5937 149.882C43.9562 149.64 44.3472 149.45 44.7669 149.313C45.1805 149.184 45.6147 149.148 46.0693 149.203C46.5152 149.253 46.9617 149.433 47.4088 149.743ZM46.3792 150.469C46.1951 150.342 45.981 150.239 45.7368 150.16C45.4866 150.091 45.212 150.056 44.9132 150.057C44.6143 150.057 44.3013 150.106 43.974 150.204C43.6468 150.302 43.3036 150.46 42.9446 150.678L42.0645 151.976L41.755 151.664C41.9925 151.621 42.2539 151.646 42.5392 151.74C42.8157 151.828 43.1095 151.947 43.4204 152.098C43.7313 152.249 44.0452 152.395 44.3622 152.537C44.6731 152.687 44.9804 152.796 45.2839 152.864C45.5726 152.934 45.8492 152.938 46.1137 152.875C46.3694 152.805 46.5975 152.626 46.7981 152.337C47.0411 151.986 47.1213 151.646 47.0385 151.316C46.9409 150.989 46.7211 150.706 46.3792 150.469Z" fill="white"/>
<path d="M37.9326 142.319C38.4575 142.804 38.832 143.302 39.0561 143.814C39.265 144.327 39.3531 144.837 39.3203 145.344C39.2725 145.851 39.1297 146.344 38.8919 146.821C38.6542 147.299 38.3471 147.741 37.9707 148.149C37.5508 148.603 37.1012 148.972 36.6218 149.255C36.1423 149.538 35.6475 149.72 35.1374 149.801C34.6195 149.874 34.1043 149.826 33.5919 149.658C33.0723 149.497 32.5735 149.196 32.0956 148.755C31.6333 148.328 31.3019 147.869 31.1014 147.379C30.8936 146.896 30.8176 146.405 30.8732 145.904C30.9217 145.412 31.0916 144.937 31.383 144.48L32.6769 145.131C32.4827 145.373 32.3502 145.65 32.2795 145.962C32.2088 146.274 32.2253 146.594 32.3288 146.922C32.4173 147.251 32.6261 147.567 32.9551 147.871C33.2529 148.146 33.5657 148.327 33.8936 148.412C34.2216 148.497 34.5577 148.502 34.902 148.428C35.2312 148.355 35.5653 148.214 35.9042 148.004C36.2353 147.787 36.5565 147.51 36.8678 147.173C37.2876 146.719 37.5866 146.262 37.7646 145.802C37.9427 145.342 37.9815 144.891 37.881 144.45C37.7805 144.008 37.5187 143.592 37.0956 143.201C36.7666 142.897 36.4378 142.695 36.1092 142.595C35.7735 142.503 35.4449 142.497 35.1235 142.577C34.7949 142.666 34.477 142.837 34.17 143.091L33.4009 141.966C33.767 141.68 34.1439 141.476 34.5317 141.355C34.9116 141.227 35.2947 141.182 35.6812 141.219C36.0676 141.257 36.4495 141.37 36.8269 141.559C37.2036 141.733 37.5722 141.986 37.9326 142.319Z" fill="white"/>
<path d="M31.4979 135.68C31.9964 136.265 32.2086 136.834 32.1345 137.388C32.0534 137.934 31.6883 138.484 31.0392 139.038L27.473 142.081L28.2831 143.03L27.3477 143.807L26.8492 143.223C26.6761 143.02 26.515 142.905 26.3658 142.878C26.2097 142.843 26.036 142.886 25.8449 143.007L24.8038 143.685L24.2222 143.004L25.6341 141.799L24.097 139.997L25.0342 139.198L26.5713 140.999L30.1009 137.987C30.4255 137.71 30.5985 137.436 30.6199 137.166C30.6263 136.894 30.5083 136.616 30.266 136.332C30.1414 136.186 29.9895 136.049 29.8105 135.921C29.6245 135.786 29.4055 135.685 29.1534 135.62L30.2488 134.685C30.532 134.836 30.7763 134.999 30.9818 135.174C31.1874 135.349 31.3594 135.518 31.4979 135.68Z" fill="white"/>
<path d="M25.0336 127.611L20.5109 129.942L17.6807 131.4L17.087 130.248L19.5065 129.145L19.3892 128.918C18.7568 129.088 18.202 129.164 17.7247 129.146C17.2379 129.132 16.8215 129.023 16.4755 128.817C16.1247 128.602 15.8441 128.291 15.634 127.883C15.3946 127.418 15.3152 126.973 15.3958 126.548C15.467 126.127 15.6556 125.748 15.9616 125.41C16.2531 125.068 16.6265 124.78 17.0816 124.545L16.9643 124.317C16.3701 124.492 15.8344 124.57 15.3571 124.552C14.8655 124.529 14.4417 124.406 14.086 124.181C13.7253 123.947 13.4375 123.621 13.2225 123.204C13.027 122.825 12.9318 122.454 12.9369 122.091C12.942 121.728 13.0427 121.377 13.2389 121.035C13.4302 120.685 13.7242 120.347 14.121 120.023C14.5033 119.694 14.979 119.383 15.5479 119.089L19.5728 117.015L20.2398 118.309L16.3856 120.296C15.8262 120.584 15.3885 120.876 15.0724 121.17C14.7469 121.47 14.5478 121.771 14.4752 122.072C14.3882 122.369 14.4253 122.674 14.5866 122.987C14.7723 123.347 15.0592 123.601 15.4475 123.749C15.8357 123.897 16.2943 123.949 16.8233 123.904C17.3379 123.855 17.8896 123.715 18.4783 123.483L21.977 121.68L22.6294 122.946L18.9032 124.866C18.3058 125.174 17.8444 125.478 17.5189 125.778C17.1839 126.082 16.9706 126.39 16.879 126.701C16.7825 127.003 16.8173 127.315 16.9835 127.638C17.179 128.017 17.4803 128.275 17.8875 128.414C18.2852 128.557 18.7508 128.599 19.2844 128.54C19.8131 128.471 20.3599 128.321 20.9248 128.09L24.3666 126.316L25.0336 127.611Z" fill="white"/>
<path d="M17.3428 109.716C17.5318 110.339 17.6073 110.918 17.5693 111.453C17.521 111.992 17.3679 112.479 17.1098 112.914C16.8487 113.339 16.4995 113.712 16.0623 114.034C15.622 114.347 15.0956 114.596 14.4832 114.782C13.8606 114.971 13.2643 115.062 12.6942 115.057C12.121 115.042 11.5924 114.935 11.1085 114.736C10.6245 114.538 10.2108 114.24 9.86716 113.842C9.51336 113.448 9.24657 112.955 9.06681 112.363C8.90874 111.842 8.85292 111.347 8.89935 110.875C8.94269 110.394 9.10158 109.945 9.37603 109.527C9.64028 109.112 10.0263 108.75 10.534 108.439C11.0285 108.122 11.6478 107.867 12.392 107.675L14.3208 113.861L13.3716 114.149L11.6985 108.805L12.4856 109.084C11.8271 109.228 11.3149 109.451 10.9492 109.751C10.5803 110.042 10.3383 110.383 10.2231 110.774C10.108 111.166 10.1155 111.576 10.2457 112.005C10.3913 112.485 10.6409 112.866 10.9943 113.149C11.3446 113.421 11.7789 113.585 12.2971 113.639C12.8153 113.694 13.4009 113.622 14.0542 113.424C14.9932 113.138 15.6492 112.711 16.0222 112.14C16.3819 111.563 16.4378 110.866 16.1899 110.049C16.0907 109.723 15.9698 109.453 15.827 109.24C15.671 109.02 15.5018 108.848 15.3196 108.725C15.124 108.595 14.9188 108.507 14.7041 108.461C14.4761 108.407 14.2507 108.381 14.028 108.382L13.9317 107.073C14.3403 107.061 14.7205 107.101 15.0723 107.195C15.4138 107.292 15.7301 107.452 16.021 107.676C16.3088 107.89 16.5662 108.168 16.7931 108.512C17.017 108.845 17.2002 109.247 17.3428 109.716Z" fill="white"/>
<path d="M11.7467 97.4752C11.8067 97.9944 11.7402 98.3941 11.5471 98.6741C11.3528 98.9435 11.0172 99.1058 10.5404 99.161C10.053 99.2174 9.6839 99.1366 9.4332 98.9186C9.18126 98.69 9.02527 98.3162 8.96521 97.797C8.90516 97.2778 8.97168 96.8781 9.16478 96.5981C9.35666 96.3074 9.6963 96.1339 10.1837 96.0776C10.6605 96.0224 11.0255 96.1144 11.2787 96.3536C11.5306 96.5821 11.6866 96.956 11.7467 97.4752Z" fill="white"/>
<path d="M14.2323 83.5162C14.188 84.2295 14.0383 84.8348 13.783 85.3319C13.5178 85.8178 13.1783 86.2082 12.7645 86.5031C12.3408 86.7867 11.8689 86.9872 11.3486 87.1046C10.8283 87.2219 10.2914 87.2634 9.73779 87.2291C9.12031 87.1908 8.55037 87.0753 8.02796 86.8826C7.50556 86.6898 7.05199 86.4212 6.66724 86.0768C6.28316 85.7216 5.99453 85.2923 5.80134 84.7887C5.5975 84.2844 5.51572 83.7076 5.55601 83.0582C5.59498 82.43 5.7411 81.8834 5.99439 81.4182C6.23704 80.9523 6.56988 80.5829 6.99293 80.3099C7.40533 80.0362 7.88066 79.868 8.41891 79.8052L8.73196 81.2193C8.4219 81.2214 8.12352 81.2938 7.83681 81.4363C7.5501 81.5788 7.31233 81.7938 7.1235 82.0814C6.92468 82.3576 6.8114 82.7193 6.78367 83.1664C6.75857 83.5709 6.81662 83.9272 6.95782 84.2352C7.09902 84.5432 7.30707 84.8073 7.58197 85.0274C7.84689 85.2362 8.16767 85.4057 8.54433 85.536C8.92165 85.6555 9.3392 85.7295 9.79699 85.7579C10.4145 85.7962 10.9577 85.7391 11.4267 85.5865C11.8957 85.4339 12.2696 85.1792 12.5482 84.8225C12.8268 84.4657 12.984 83.9999 13.0196 83.425C13.0474 82.9778 12.9963 82.5953 12.8664 82.2773C12.7258 81.9587 12.5228 81.7003 12.2572 81.5021C11.981 81.3033 11.6476 81.165 11.257 81.0874L11.6426 79.7807C12.0958 79.8837 12.4917 80.0472 12.8305 80.2712C13.17 80.4847 13.4472 80.753 13.6623 81.0763C13.8773 81.3995 14.0309 81.7671 14.1229 82.1789C14.2262 82.5807 14.2627 83.0265 14.2323 83.5162Z" fill="white"/>
<path d="M15.5544 73.3406C15.3926 74.1132 15.0823 74.762 14.6236 75.2871C14.1566 75.7996 13.5697 76.1562 12.8629 76.3569C12.1561 76.5576 11.3485 76.5628 10.4402 76.3726C9.50063 76.1758 8.75892 75.8406 8.21512 75.3671C7.66305 74.8809 7.29165 74.3127 7.1009 73.6625C6.91234 73.0018 6.8935 72.3113 7.04438 71.5909C7.20182 70.8392 7.50881 70.206 7.96534 69.6913C8.41363 69.164 8.99227 68.7948 9.70128 68.5837C10.3999 68.3704 11.2137 68.361 12.1429 68.5556C13.0721 68.7502 13.8138 69.0854 14.368 69.5611C14.9223 70.0369 15.3 70.6009 15.5012 71.2534C15.6919 71.9036 15.7097 72.5994 15.5544 73.3406ZM14.393 73.032C14.4958 72.5413 14.4643 72.0933 14.2985 71.6881C14.1245 71.2702 13.8327 70.9203 13.4231 70.6383C13.0158 70.3459 12.5041 70.1352 11.8881 70.0062C11.2513 69.8728 10.6824 69.8572 10.1815 69.9593C9.67012 70.0593 9.2498 70.271 8.92052 70.5943C8.58079 70.9155 8.35517 71.3423 8.24365 71.8748C8.14088 72.3655 8.17128 72.8186 8.33487 73.2343C8.48802 73.6479 8.76307 73.9997 9.16 74.2899C9.55694 74.5801 10.0738 74.7919 10.7107 74.9253C11.6921 75.1308 12.5127 75.063 13.1727 74.7217C13.8223 74.3782 14.229 73.815 14.393 73.032Z" fill="white"/>
<path d="M17.1458 65.8572L12.3662 64.0666L9.39951 62.9553L9.85977 61.7266L12.3021 62.7783L12.3919 62.5385C11.8212 62.1767 11.386 61.8029 11.0863 61.4172C10.7865 61.0316 10.6091 60.6234 10.554 60.1927C10.4889 59.7583 10.5462 59.3013 10.7258 58.8219C11.0476 57.9628 11.6005 57.4296 12.3845 57.2221C13.1622 57.0008 14.1603 57.1185 15.379 57.575L19.6492 59.1747L19.1328 60.5531L14.9824 58.9983C14.1034 58.669 13.4018 58.5657 12.8775 58.6882C12.3569 58.8007 11.9975 59.1217 11.7991 59.6511C11.6195 60.1306 11.6159 60.5962 11.7884 61.0481C11.9646 61.49 12.2668 61.8994 12.6952 62.2763C13.1173 62.6394 13.6124 62.9445 14.1805 63.1915L17.6566 64.4937L17.1458 65.8572Z" fill="white"/>
<path d="M22.6185 53.4525C22.2614 54.1324 21.8119 54.5409 21.27 54.678C20.7331 54.8057 20.0869 54.6711 19.3314 54.2744L15.1809 52.0947L14.6007 53.1996L13.5315 52.6201L13.8886 51.9401C14.0126 51.704 14.0594 51.5117 14.029 51.3632C14.0035 51.2052 13.899 51.06 13.7156 50.9275L12.6992 50.2131L13.1158 49.4198L14.759 50.2828L15.86 48.1863L16.9508 48.7591L15.8498 50.8556L19.9577 53.013C20.3355 53.2113 20.654 53.2702 20.9132 53.1894C21.168 53.0943 21.3822 52.8815 21.5557 52.551C21.645 52.381 21.7156 52.1892 21.7676 51.9755C21.8245 51.7524 21.8365 51.5117 21.8035 51.2534L23.0784 51.9229C23.0434 52.2419 22.9828 52.5293 22.8966 52.7853C22.8103 53.0412 22.7176 53.2636 22.6185 53.4525Z" fill="white"/>
<path d="M26.0518 47.6861C25.7915 48.0638 25.4881 48.3534 25.1418 48.5551C24.7954 48.7569 24.4168 48.8456 24.0059 48.8215C23.601 48.7886 23.1835 48.6238 22.7532 48.3271C22.4194 48.097 22.169 47.8402 22.0018 47.5565C21.8346 47.2728 21.748 46.9474 21.7418 46.5805C21.7418 46.2047 21.8209 45.7799 21.9792 45.306C22.1435 44.8233 22.3799 44.2737 22.6883 43.6572C22.8745 43.2932 23.0152 42.9951 23.1106 42.7628C23.2059 42.5305 23.2386 42.3328 23.2086 42.1696C23.1698 42.0004 23.0494 41.8461 22.8474 41.7069C22.5137 41.4768 22.154 41.3972 21.7682 41.4681C21.3825 41.5391 21.0201 41.8204 20.681 42.3122C20.5055 42.5669 20.3708 42.8562 20.277 43.1802C20.1832 43.5042 20.175 43.8355 20.2526 44.174C20.3214 44.5064 20.519 44.8305 20.8455 45.1463L19.7361 45.9945C19.4596 45.7002 19.2485 45.3862 19.1028 45.0526C18.9631 44.7101 18.8902 44.3554 18.8841 43.9885C18.8753 43.6066 18.9376 43.2156 19.071 42.8153C19.2106 42.4062 19.4226 41.9952 19.7071 41.5825C20.1067 41.0029 20.5333 40.5909 20.9868 40.3464C21.4404 40.102 21.9357 40.0224 22.4729 40.1077C23.0013 40.187 23.5772 40.4415 24.2007 40.8714L25.7025 41.9067C25.9835 42.1004 26.2895 42.3049 26.6205 42.5201C26.9487 42.7205 27.2814 42.9239 27.6184 43.1304C27.9527 43.322 28.2695 43.5015 28.5687 43.6689L27.8058 44.7754C27.5066 44.608 27.2105 44.4362 26.9174 44.2601C26.6154 44.0778 26.3165 43.8912 26.0207 43.7002L25.9026 43.8714C26.1455 44.2332 26.3362 44.6238 26.4747 45.0431C26.6043 45.4564 26.6419 45.8905 26.5875 46.3453C26.5391 46.7913 26.3606 47.2382 26.0518 47.6861ZM25.3222 46.6584C25.4493 46.474 25.5518 46.2596 25.6296 46.0152C25.6986 45.7648 25.7324 45.4902 25.7312 45.1913C25.7299 44.8925 25.68 44.5796 25.5816 44.2526C25.4831 43.9256 25.3243 43.5828 25.105 43.2244L23.8049 42.3475L24.116 42.0373C24.1596 42.2747 24.1349 42.5361 24.0417 42.8217C23.9545 43.0984 23.836 43.3925 23.6862 43.7038C23.5363 44.0151 23.3909 44.3294 23.2499 44.6467C23.1 44.958 22.9917 45.2655 22.9248 45.5692C22.8552 45.8581 22.8524 46.1347 22.9163 46.399C22.9863 46.6546 23.1662 46.8823 23.456 47.082C23.8073 47.3242 24.1478 47.4035 24.4775 47.3199C24.8045 47.2214 25.0861 47.0009 25.3222 46.6584Z" fill="white"/>
<path d="M33.4519 38.1906C32.9683 38.7167 32.4707 39.0925 31.9593 39.3179C31.4473 39.5281 30.9377 39.6175 30.4306 39.586C29.9228 39.5395 29.43 39.3979 28.9519 39.1614C28.4739 38.9248 28.0308 38.6189 27.6224 38.2435C27.1669 37.8248 26.797 37.3761 26.5126 36.8974C26.2282 36.4187 26.0451 35.9244 25.9633 35.4145C25.8886 34.8967 25.9349 34.3815 26.102 33.8686C26.2613 33.3486 26.5611 32.849 27.0014 32.37C27.4273 31.9067 27.8851 31.5741 28.3749 31.3723C28.8568 31.1633 29.348 31.086 29.8485 31.1404C30.3412 31.1876 30.8164 31.3563 31.274 31.6466L30.6265 32.9421C30.3843 32.7485 30.107 32.6167 29.7945 32.5468C29.4821 32.4769 29.1619 32.4942 28.8342 32.5986C28.5058 32.6879 28.19 32.8975 27.8868 33.2273C27.6125 33.5257 27.4332 33.839 27.3489 34.1672C27.2645 34.4953 27.2598 34.8315 27.3347 35.1756C27.4089 35.5046 27.5513 35.8383 27.7619 36.1767C27.9796 36.5073 28.2573 36.8277 28.595 37.1381C29.0505 37.5568 29.5084 37.8546 29.9688 38.0315C30.4292 38.2084 30.88 38.246 31.3211 38.1444C31.7622 38.0428 32.1777 37.78 32.5675 37.3559C32.8706 37.0261 33.0719 36.6968 33.1713 36.368C33.2629 36.0319 33.2679 35.7033 33.1864 35.3822C33.0971 35.0538 32.9252 34.7364 32.6708 34.43L33.7933 33.658C34.0804 34.0234 34.285 34.3998 34.407 34.7872C34.5362 35.1668 34.5825 35.5498 34.546 35.9364C34.5094 36.3229 34.3972 36.7051 34.2092 37.0829C34.0364 37.4601 33.7839 37.8293 33.4519 38.1906Z" fill="white"/>
<path d="M40.0738 31.7392C39.4908 32.2392 38.9223 32.4528 38.368 32.3801C37.8219 32.3005 37.2711 31.9368 36.7155 31.2891L33.6635 27.7307L32.7162 28.5432L31.9367 27.6098L32.5196 27.1098C32.722 26.9361 32.8365 26.7747 32.8631 26.6255C32.8977 26.4693 32.8543 26.2957 32.7327 26.1049L32.0521 25.0656L32.7322 24.4822L33.9405 25.891L35.738 24.3494L36.54 25.2845L34.7426 26.8262L37.7634 30.3481C38.0412 30.672 38.3155 30.8443 38.5862 30.865C38.8581 30.8707 39.1357 30.752 39.4191 30.509C39.5648 30.384 39.7013 30.2318 39.8285 30.0524C39.9638 29.8661 40.0638 29.6468 40.1285 29.3946L41.066 30.4876C40.9157 30.7711 40.7533 31.0159 40.5786 31.2219C40.404 31.4279 40.2357 31.6003 40.0738 31.7392Z" fill="white"/>
<path d="M48.1269 25.2544L45.7843 20.7378L44.3184 17.9113L45.4688 17.3146L46.5781 19.7313L46.8053 19.6134C46.6337 18.9814 46.5564 18.4268 46.5731 17.9495C46.585 17.4627 46.6933 17.046 46.8981 16.6995C47.1124 16.348 47.4231 16.0667 47.8302 15.8555C48.2942 15.6149 48.7391 15.5344 49.1649 15.6139C49.5857 15.684 49.9654 15.8716 50.3039 16.1767C50.6469 16.4674 50.9363 16.84 51.172 17.2945L51.3993 17.1767C51.2235 16.5829 51.144 16.0474 51.1608 15.5701C51.1821 15.0783 51.3047 14.6543 51.5284 14.298C51.7616 13.9367 52.0865 13.648 52.5031 13.4319C52.8819 13.2355 53.2526 13.1394 53.6152 13.1435C53.9779 13.1477 54.33 13.2474 54.6716 13.4428C55.0227 13.6332 55.361 13.9263 55.6865 14.3222C56.0166 14.7038 56.3289 15.1786 56.6236 15.7468L58.7083 19.7663L57.4158 20.4367L55.4195 16.5876C55.1298 16.0289 54.837 15.5919 54.5413 15.2767C54.2407 14.9519 53.9396 14.7536 53.638 14.6818C53.3409 14.5955 53.0362 14.6334 52.7237 14.7955C52.3639 14.9821 52.1105 15.2697 51.9636 15.6584C51.8167 16.047 51.7662 16.5057 51.8122 17.0346C51.8628 17.5491 52.0045 18.1004 52.2375 18.6885L54.0497 22.1825L52.7856 22.8382L50.8555 19.1169C50.5461 18.5204 50.2411 18.0597 49.9405 17.735C49.635 17.4008 49.3265 17.1883 49.0151 17.0975C48.7131 17.0018 48.4012 17.0374 48.0792 17.2044C47.7005 17.4008 47.4425 17.7028 47.3055 18.1104C47.1635 18.5084 47.1226 18.9742 47.183 19.5076C47.2529 20.0362 47.4041 20.5826 47.6367 21.1468L49.4194 24.584L48.1269 25.2544Z" fill="white"/>
<path d="M66.0014 17.5174C65.3793 17.7081 64.8005 17.7851 64.2649 17.7484C63.7262 17.7016 63.2389 17.5497 62.8032 17.2928C62.3776 17.0327 62.0031 16.6845 61.6797 16.2481C61.3665 15.8086 61.1161 15.2829 60.9286 14.671C60.7379 14.0489 60.6445 13.4528 60.6482 12.8827C60.6622 12.3094 60.7679 11.7806 60.9652 11.2961C61.1626 10.8117 61.4595 10.3971 61.8559 10.0525C62.2492 9.69769 62.7416 9.42963 63.3331 9.24834C63.8532 9.08893 64.3489 9.03183 64.8202 9.07705C65.3017 9.11914 65.7516 9.27687 66.1701 9.55024C66.5855 9.81341 66.9489 10.1985 67.2605 10.7054C67.5791 11.1991 67.8357 11.8177 68.0301 12.5614L61.8487 14.5062L61.558 13.5577L66.8981 11.8708L66.6208 12.6586C66.4749 12.0005 66.2511 11.4889 65.9496 11.1239C65.6583 10.7558 65.3166 10.5147 64.9246 10.4005C64.5326 10.2864 64.1225 10.295 63.6941 10.4263C63.2148 10.5732 62.8342 10.8237 62.5523 11.1779C62.2805 11.5289 62.1181 11.9636 62.065 12.4819C62.0119 13.0002 62.0854 13.5857 62.2854 14.2384C62.573 15.1767 63.0024 15.8316 63.5737 16.2031C64.1521 16.5614 64.8492 16.6155 65.6651 16.3654C65.9914 16.2654 66.2609 16.1437 66.4736 16.0005C66.6934 15.8439 66.8645 15.6743 66.9871 15.4917C67.1167 15.2958 67.2043 15.0904 67.2501 14.8756C67.3028 14.6474 67.3286 14.422 67.3273 14.1992L68.6355 14.0995C68.6491 14.5081 68.6095 14.8884 68.5166 15.2404C68.4205 15.5822 68.261 15.8989 68.0379 16.1904C67.8251 16.4788 67.5472 16.7369 67.2042 16.9647C66.8715 17.1894 66.4705 17.3736 66.0014 17.5174Z" fill="white"/>
<path d="M78.2287 11.8896C77.7097 11.951 77.3099 11.8855 77.0293 11.6931C76.7594 11.4995 76.5963 11.1643 76.5399 10.6877C76.4823 10.2004 76.5621 9.83111 76.7794 9.57985C77.0074 9.32734 77.3808 9.17039 77.8999 9.10901C78.4189 9.04763 78.8187 9.11313 79.0993 9.30552C79.3904 9.49665 79.5648 9.83585 79.6224 10.3231C79.6788 10.7998 79.5877 11.165 79.3492 11.4188C79.1213 11.6713 78.7478 11.8283 78.2287 11.8896Z" fill="white"/>
</svg>
