<svg width="176" height="43" viewBox="0 0 176 43" fill="none" xmlns="http://www.w3.org/2000/svg">
<path d="M0.936 34V2.32H13.032C14.888 2.32 16.552 2.48 18.024 2.8C19.496 3.12 20.76 3.616 21.816 4.288C22.872 4.96 23.672 5.824 24.216 6.88C24.792 7.936 25.08 9.2 25.08 10.672C25.08 11.888 24.824 12.96 24.312 13.888C23.832 14.816 23.064 15.584 22.008 16.192C20.952 16.768 19.56 17.184 17.832 17.44V18.064C20.808 18.288 22.968 19.072 24.312 20.416C25.688 21.728 26.376 23.472 26.376 25.648C26.376 27.472 25.928 29.008 25.032 30.256C24.168 31.472 22.84 32.4 21.048 33.04C19.256 33.68 16.968 34 14.184 34H0.936ZM5.928 29.632H14.472C16.744 29.632 18.44 29.264 19.56 28.528C20.68 27.76 21.24 26.592 21.24 25.024C21.24 23.232 20.488 21.888 18.984 20.992C17.48 20.096 15.224 19.648 12.216 19.648H5.928V29.632ZM5.928 16H11.304C14.216 16 16.376 15.616 17.784 14.848C19.224 14.048 19.944 12.848 19.944 11.248C19.944 9.68 19.32 8.528 18.072 7.792C16.824 7.024 14.952 6.64 12.456 6.64H5.928V16ZM32.5688 34V18.688V0.159998H37.8488V7.936C37.8488 8.608 37.8328 9.312 37.8008 10.048C37.7688 10.752 37.7048 11.472 37.6088 12.208C37.5128 12.944 37.4168 13.68 37.3208 14.416C37.2248 15.152 37.1128 15.904 36.9848 16.672H37.8488C38.3288 14.88 38.9208 13.376 39.6248 12.16C40.3608 10.912 41.2728 9.984 42.3608 9.376C43.4808 8.736 44.8248 8.416 46.3928 8.416C49.2728 8.416 51.4168 9.424 52.8248 11.44C54.2328 13.424 54.9368 16.416 54.9368 20.416V34H49.6568V21.088C49.6568 18.272 49.2248 16.208 48.3608 14.896C47.5288 13.584 46.2648 12.928 44.5688 12.928C43.1608 12.928 41.9768 13.344 41.0168 14.176C40.0888 15.008 39.3528 16.128 38.8088 17.536C38.2648 18.944 37.9128 20.544 37.7528 22.336V34H32.5688ZM67.5319 34.624C66.1559 34.624 64.9239 34.368 63.8359 33.856C62.7479 33.312 61.8839 32.512 61.2439 31.456C60.6359 30.4 60.3319 29.088 60.3319 27.52C60.3319 26.272 60.5559 25.2 61.0039 24.304C61.4839 23.376 62.1879 22.608 63.1159 22C64.0759 21.36 65.2919 20.848 66.7639 20.464C68.2359 20.048 69.9799 19.696 71.9959 19.408C73.1159 19.248 74.0279 19.088 74.7319 18.928C75.4679 18.768 75.9959 18.512 76.3159 18.16C76.6679 17.808 76.8439 17.28 76.8439 16.576C76.8439 15.488 76.4599 14.56 75.6919 13.792C74.9559 12.992 73.7559 12.592 72.0919 12.592C71.1639 12.592 70.2359 12.752 69.3079 13.072C68.4119 13.392 67.6279 13.92 66.9559 14.656C66.3159 15.36 65.8839 16.32 65.6599 17.536L60.9559 16.048C61.2439 14.832 61.7079 13.76 62.3479 12.832C62.9879 11.872 63.7879 11.072 64.7479 10.432C65.7079 9.76 66.8119 9.264 68.0599 8.944C69.3399 8.592 70.7319 8.416 72.2359 8.416C74.4439 8.416 76.2679 8.784 77.7079 9.52C79.1479 10.256 80.2199 11.392 80.9239 12.928C81.6599 14.432 82.0279 16.368 82.0279 18.736V23.824C82.0279 24.88 82.0439 26 82.0759 27.184C82.1399 28.336 82.2039 29.504 82.2679 30.688C82.3639 31.84 82.4759 32.944 82.6039 34H77.8519C77.7559 33.04 77.6599 32.048 77.5639 31.024C77.4999 30 77.4359 28.96 77.3719 27.904H76.6519C76.2039 29.12 75.5639 30.24 74.7319 31.264C73.9319 32.288 72.9239 33.104 71.7079 33.712C70.5239 34.32 69.1319 34.624 67.5319 34.624ZM69.3559 30.592C70.0279 30.592 70.6999 30.48 71.3719 30.256C72.0759 30.032 72.7639 29.696 73.4359 29.248C74.1399 28.768 74.7799 28.16 75.3559 27.424C75.9639 26.688 76.4919 25.808 76.9399 24.784L76.8919 20.272L78.1399 20.512C77.5959 20.992 76.9079 21.36 76.0759 21.616C75.2759 21.872 74.3959 22.08 73.4359 22.24C72.4759 22.368 71.5159 22.528 70.5559 22.72C69.6279 22.88 68.7639 23.12 67.9639 23.44C67.1959 23.728 66.5719 24.144 66.0919 24.688C65.6439 25.232 65.4199 25.984 65.4199 26.944C65.4199 28.128 65.7879 29.04 66.5239 29.68C67.2599 30.288 68.2039 30.592 69.3559 30.592ZM94.254 34L85.518 9.088H91.326L97.566 29.728H98.286L104.574 9.088H110.19L101.454 34H94.254ZM123.626 42.448C122.346 42.448 121.05 42.304 119.738 42.016C118.458 41.76 117.274 41.344 116.186 40.768C115.098 40.224 114.186 39.504 113.45 38.608L115.562 34.48C116.394 35.568 117.514 36.384 118.922 36.928C120.33 37.504 121.818 37.792 123.386 37.792C125.178 37.792 126.65 37.408 127.802 36.64C128.986 35.904 129.882 34.752 130.49 33.184C131.098 31.616 131.418 29.648 131.45 27.28L131.882 22.48H130.97C130.618 24.752 130.058 26.576 129.29 27.952C128.554 29.328 127.642 30.32 126.554 30.928C125.466 31.536 124.186 31.84 122.714 31.84C120.89 31.84 119.354 31.392 118.106 30.496C116.89 29.568 115.962 28.208 115.322 26.416C114.714 24.592 114.41 22.368 114.41 19.744V9.04H119.594V18.592C119.594 21.632 119.994 23.856 120.794 25.264C121.626 26.672 122.858 27.376 124.49 27.376C125.386 27.376 126.186 27.152 126.89 26.704C127.594 26.256 128.202 25.6 128.714 24.736C129.258 23.84 129.674 22.736 129.962 21.424C130.282 20.112 130.474 18.592 130.538 16.864V9.04H135.77V27.52C135.77 29.504 135.61 31.296 135.29 32.896C134.97 34.464 134.474 35.84 133.802 37.024C133.162 38.24 132.362 39.248 131.402 40.048C130.442 40.88 129.306 41.488 127.994 41.872C126.714 42.256 125.258 42.448 123.626 42.448ZM148.626 34.624C147.25 34.624 146.018 34.368 144.93 33.856C143.842 33.312 142.978 32.512 142.338 31.456C141.73 30.4 141.426 29.088 141.426 27.52C141.426 26.272 141.65 25.2 142.098 24.304C142.578 23.376 143.282 22.608 144.21 22C145.17 21.36 146.386 20.848 147.858 20.464C149.33 20.048 151.074 19.696 153.09 19.408C154.21 19.248 155.122 19.088 155.826 18.928C156.562 18.768 157.09 18.512 157.41 18.16C157.762 17.808 157.938 17.28 157.938 16.576C157.938 15.488 157.554 14.56 156.786 13.792C156.05 12.992 154.85 12.592 153.186 12.592C152.258 12.592 151.33 12.752 150.402 13.072C149.506 13.392 148.722 13.92 148.05 14.656C147.41 15.36 146.978 16.32 146.754 17.536L142.05 16.048C142.338 14.832 142.802 13.76 143.442 12.832C144.082 11.872 144.882 11.072 145.842 10.432C146.802 9.76 147.906 9.264 149.154 8.944C150.434 8.592 151.826 8.416 153.33 8.416C155.538 8.416 157.362 8.784 158.802 9.52C160.242 10.256 161.314 11.392 162.018 12.928C162.754 14.432 163.122 16.368 163.122 18.736V23.824C163.122 24.88 163.138 26 163.17 27.184C163.234 28.336 163.298 29.504 163.362 30.688C163.458 31.84 163.57 32.944 163.698 34H158.946C158.85 33.04 158.754 32.048 158.658 31.024C158.594 30 158.53 28.96 158.466 27.904H157.746C157.298 29.12 156.658 30.24 155.826 31.264C155.026 32.288 154.018 33.104 152.802 33.712C151.618 34.32 150.226 34.624 148.626 34.624ZM150.45 30.592C151.122 30.592 151.794 30.48 152.466 30.256C153.17 30.032 153.858 29.696 154.53 29.248C155.234 28.768 155.874 28.16 156.45 27.424C157.058 26.688 157.586 25.808 158.034 24.784L157.986 20.272L159.234 20.512C158.69 20.992 158.002 21.36 157.17 21.616C156.37 21.872 155.49 22.08 154.53 22.24C153.57 22.368 152.61 22.528 151.65 22.72C150.722 22.88 149.858 23.12 149.058 23.44C148.29 23.728 147.666 24.144 147.186 24.688C146.738 25.232 146.514 25.984 146.514 26.944C146.514 28.128 146.882 29.04 147.618 29.68C148.354 30.288 149.298 30.592 150.45 30.592Z" fill="black"/>
<path d="M171.437 34.576C170.253 34.576 169.357 34.32 168.749 33.808C168.173 33.296 167.885 32.496 167.885 31.408C167.885 30.288 168.189 29.472 168.797 28.96C169.405 28.448 170.285 28.192 171.437 28.192C172.653 28.192 173.565 28.448 174.173 28.96C174.781 29.472 175.085 30.288 175.085 31.408C175.085 33.52 173.869 34.576 171.437 34.576Z" fill="#164BDC"/>
</svg>
