<svg width="72" height="72" viewBox="0 0 72 72" fill="none" xmlns="http://www.w3.org/2000/svg">
<rect x="0.644775" y="36" width="50" height="50" transform="rotate(-45 0.644775 36)" fill="#164BDC"/>
<path d="M25.898 45V27.84H33.022C34.0793 27.84 35.024 27.9353 35.856 28.126C36.688 28.2993 37.3987 28.568 37.988 28.932C38.5947 29.296 39.054 29.7727 39.366 30.362C39.6953 30.934 39.86 31.6187 39.86 32.416C39.86 33.092 39.7127 33.6813 39.418 34.184C39.1407 34.6867 38.6987 35.094 38.092 35.406C37.5027 35.718 36.7227 35.9347 35.752 36.056V36.446C37.3987 36.5673 38.6033 36.9833 39.366 37.694C40.146 38.3873 40.536 39.3233 40.536 40.502C40.536 41.49 40.276 42.322 39.756 42.998C39.2533 43.6567 38.4907 44.1593 37.468 44.506C36.4453 44.8353 35.18 45 33.672 45H25.898ZM29.46 41.984H33.62C34.7293 41.984 35.5527 41.8193 36.09 41.49C36.6273 41.1433 36.896 40.6147 36.896 39.904C36.896 39.0893 36.558 38.4827 35.882 38.084C35.206 37.668 34.1833 37.46 32.814 37.46H29.46V41.984ZM29.46 35.12H32.268C33.62 35.12 34.608 34.938 35.232 34.574C35.8733 34.1927 36.194 33.638 36.194 32.91C36.194 32.182 35.908 31.6533 35.336 31.324C34.764 30.9773 33.8887 30.804 32.71 30.804H29.46V35.12ZM44.7894 45.338C43.9748 45.338 43.3594 45.1647 42.9434 44.818C42.5448 44.4713 42.3454 43.934 42.3454 43.206C42.3454 42.4607 42.5448 41.9147 42.9434 41.568C43.3594 41.2213 43.9748 41.048 44.7894 41.048C45.6214 41.048 46.2368 41.2213 46.6354 41.568C47.0514 41.9147 47.2594 42.4607 47.2594 43.206C47.2594 44.6273 46.4361 45.338 44.7894 45.338Z" fill="white"/>
</svg>
